<svg width="30" height="30" viewBox="0 0 30 30" fill="none" xmlns="http://www.w3.org/2000/svg">
<g clip-path="url(#clip0_130407_10)">
<rect width="30" height="30" fill="#2F9E41"/>
<path d="M14.0029 0.00122168C9.63919 0.0211842 5.29731 0.287693 3.20061 0.920078C1.9308 1.41644 0.936684 2.84794 0.597062 4.6834C-0.172749 9.56521 -0.231313 20.1199 0.615856 25.1108C0.959252 26.9462 1.94997 28.3837 3.21978 28.8746C6.59713 29.9983 22.6537 30.1564 26.2386 28.8746C27.5085 28.3783 28.5026 26.9462 28.8422 25.1108C29.663 19.7926 29.7215 9.89259 28.8234 4.65623C28.48 2.82078 27.4893 1.38329 26.2195 0.892379C25.26 0.356982 19.6133 -0.0244444 14.0029 0.00122168ZM11.8799 8.50158L19.5781 14.8835L11.8799 21.2654V8.50158Z" fill="#F3F3F3"/>
</g>
<defs>
<clipPath id="clip0_130407_10">
<rect width="30" height="30" fill="white"/>
</clipPath>
</defs>
</svg>
