<svg width="30" height="30" viewBox="0 0 30 30" fill="none" xmlns="http://www.w3.org/2000/svg">
<g clip-path="url(#clip0_130407_4)">
<rect width="30" height="30" fill="#2F9E41"/>
<path d="M30 15.0913C30 6.80756 23.2838 0.0913086 15 0.0913086C6.71625 0.0913086 0 6.80756 0 15.0913C0 22.5788 5.485 28.7838 12.6562 29.9088V19.4276H8.8475V15.0901H12.6562V11.7876C12.6562 8.02881 14.8962 5.95131 18.3225 5.95131C19.9625 5.95131 21.68 6.24506 21.68 6.24506V9.93631H19.7875C17.9237 9.93631 17.3425 11.0926 17.3425 12.2788V15.0913H21.5025L20.8375 19.4288H17.3425V29.9101C24.515 28.7838 30 22.5776 30 15.0913Z" fill="white"/>
</g>
<defs>
<clipPath id="clip0_130407_4">
<rect width="30" height="30" fill="white"/>
</clipPath>
</defs>
</svg>
