<svg width="30" height="30" viewBox="0 0 30 30" fill="none" xmlns="http://www.w3.org/2000/svg">
<rect width="30" height="30" fill="#2F9E41"/>
<path d="M29.9412 5.71249C28.8181 6.20699 27.6283 6.53341 26.41 6.68124C27.6926 5.9103 28.653 4.70129 29.1138 3.27749C27.925 3.97124 26.6075 4.47624 25.205 4.75749C24.2797 3.76802 23.0536 3.11176 21.7171 2.89061C20.3805 2.66946 19.0084 2.8958 17.8137 3.53448C16.619 4.17315 15.6686 5.18842 15.1101 6.42264C14.5516 7.65686 14.4162 9.04095 14.725 10.36C9.6125 10.1187 5.08375 7.66249 2.05 3.95249C1.49849 4.88975 1.21083 5.95877 1.2175 7.04624C1.2175 9.18374 2.305 11.0625 3.9525 12.1662C2.97607 12.1352 2.02121 11.8712 1.1675 11.3962V11.4712C1.16695 12.8917 1.65784 14.2687 2.55688 15.3684C3.45593 16.4682 4.70777 17.2231 6.1 17.505C5.19787 17.7467 4.25302 17.783 3.335 17.6112C3.73015 18.8337 4.49708 19.9024 5.52877 20.6681C6.56046 21.4338 7.80544 21.8583 9.09 21.8825C6.91441 23.5899 4.2281 24.5166 1.4625 24.5137C0.975 24.5137 0.48875 24.485 0 24.43C2.81964 26.2354 6.09814 27.1937 9.44625 27.1912C20.7625 27.1912 26.9438 17.8212 26.9438 9.70999C26.9438 9.44749 26.9438 9.18499 26.925 8.92249C28.1325 8.05357 29.174 6.97476 30 5.73749L29.9412 5.71249Z" fill="white"/>
</svg>
