<svg width="202" height="47" viewBox="0 0 202 47" fill="none" xmlns="http://www.w3.org/2000/svg">
<g clip-path="url(#clip0_130605_66)">
<path d="M47.0682 34.7834V24.7515H49.4683V34.7834H47.0682Z" fill="black"/>
<path d="M62.3747 34.7834H59.3243L54.4001 27.1943H54.3305C54.4285 28.5346 54.4776 29.4907 54.4776 30.0625V34.7834H52.3329V24.7515H55.3602L60.2766 32.2651H60.3308C60.2534 30.9614 60.2147 30.0397 60.2147 29.4999V24.7515H62.3748L62.3747 34.7834Z" fill="black"/>
<path d="M71.8978 31.9975C71.8978 32.9033 71.5288 33.6169 70.7907 34.1384C70.0577 34.6599 69.0357 34.9206 67.7247 34.9206C66.5169 34.9206 65.4484 34.7193 64.5193 34.3168V32.3406C65.2833 32.6425 65.9285 32.8552 66.4549 32.9787C66.9866 33.1023 67.4718 33.164 67.9105 33.164C68.437 33.164 68.8396 33.0748 69.1183 32.8964C69.4022 32.718 69.5441 32.4527 69.5441 32.1004C69.5441 31.9037 69.4822 31.7299 69.3583 31.5789C69.2344 31.4234 69.0512 31.2747 68.8086 31.1329C68.5712 30.9911 68.0834 30.7647 67.3453 30.4536C66.6537 30.1654 66.1349 29.8887 65.7891 29.6233C65.4433 29.358 65.1671 29.0492 64.9607 28.697C64.7542 28.3448 64.651 27.9331 64.651 27.4619C64.651 26.5744 64.9891 25.8768 65.6652 25.3691C66.3465 24.8613 67.2859 24.6074 68.4834 24.6074C69.0718 24.6074 69.6319 24.6691 70.1635 24.7927C70.7003 24.9162 71.2604 25.09 71.8436 25.3141L71.0694 26.9678C70.4655 26.7483 69.9648 26.595 69.5674 26.5081C69.1751 26.4212 68.788 26.3777 68.406 26.3777C67.9518 26.3777 67.6034 26.4715 67.3608 26.6591C67.1182 26.8466 66.9969 27.0913 66.9969 27.3933C66.9969 27.5808 67.0459 27.7455 67.144 27.8873C67.2421 28.0245 67.3969 28.1595 67.6085 28.2922C67.8253 28.4203 68.3338 28.6535 69.1338 28.9921C70.1919 29.4404 70.9171 29.891 71.3094 30.3438C71.7017 30.7921 71.8978 31.3434 71.8978 31.9975Z" fill="black"/>
<path d="M78.2853 34.7834H75.8851V26.5218H72.8114V24.7515H81.3589V26.5218H78.2853V34.7834Z" fill="black"/>
<path d="M83.0855 34.7834V24.7515H85.4856V34.7834H83.0855Z" fill="black"/>
<path d="M92.7169 34.7834H90.3168V26.5218H87.2431V24.7515H95.7906V26.5218H92.7169V34.7834Z" fill="black"/>
<path d="M106.731 24.7515V31.2427C106.731 31.9838 106.542 32.6334 106.165 33.1915C105.794 33.7496 105.254 34.1773 104.547 34.4746C103.84 34.772 103.004 34.9207 102.039 34.9207C100.583 34.9207 99.4528 34.5913 98.6476 33.9325C97.8423 33.2692 97.4398 32.3635 97.4398 31.2153V24.7515H99.8321V30.8928C99.8321 31.6659 100.008 32.2331 100.359 32.5945C100.71 32.9559 101.29 33.1366 102.101 33.1366C102.885 33.1366 103.453 32.9559 103.804 32.5945C104.16 32.2286 104.338 31.6567 104.338 30.8791V24.7515H106.731Z" fill="black"/>
<path d="M113.869 34.7834H111.469V26.5218H108.395V24.7515H116.943V26.5218H113.869V34.7834Z" fill="black"/>
<path d="M128.943 29.7537C128.943 31.4143 128.479 32.6906 127.55 33.5826C126.621 34.4746 125.289 34.9206 123.555 34.9206C121.82 34.9206 120.489 34.4746 119.56 33.5826C118.631 32.6906 118.166 31.4097 118.166 29.74C118.166 28.0703 118.631 26.7963 119.56 25.918C120.494 25.0351 121.831 24.5937 123.57 24.5937C125.31 24.5937 126.639 25.0374 127.557 25.9249C128.481 26.8123 128.943 28.0886 128.943 29.7537ZM120.682 29.7537C120.682 30.8745 120.922 31.7185 121.402 32.2857C121.882 32.853 122.6 33.1366 123.555 33.1366C125.47 33.1366 126.427 32.009 126.427 29.7537C126.427 27.4939 125.475 26.364 123.57 26.364C122.615 26.364 121.895 26.6499 121.41 27.2217C120.925 27.789 120.682 28.633 120.682 29.7537Z" fill="black"/>
<path d="M137.785 34.7834H135.424V24.7515H141.912V26.4944H137.785V29.0813H141.625V30.8173H137.785V34.7834Z" fill="black"/>
<path d="M150.645 34.7834H144.126V24.7515H150.645V26.4944H146.526V28.697H150.359V30.4399H146.526V33.0268H150.645V34.7834Z" fill="black"/>
<path d="M162.406 29.6714C162.406 31.3228 161.874 32.5876 160.811 33.466C159.753 34.3443 158.222 34.7834 156.22 34.7834H153.014V24.7515H156.568C158.416 24.7515 159.851 25.1838 160.873 26.0484C161.895 26.913 162.406 28.1206 162.406 29.6714ZM159.913 29.7263C159.913 27.5717 158.839 26.4944 156.692 26.4944H155.414V33.0268H156.444C158.757 33.0268 159.913 31.9266 159.913 29.7263Z" fill="black"/>
<path d="M171.271 34.7834H164.752V24.7515H171.271V26.4944H167.152V28.697H170.984V30.4399H167.152V33.0268H171.271V34.7834Z" fill="black"/>
<path d="M176.04 29.2048H176.814C177.573 29.2048 178.133 29.0927 178.494 28.8686C178.856 28.6444 179.036 28.2922 179.036 27.8119C179.036 27.3361 178.85 26.9976 178.479 26.7963C178.112 26.595 177.542 26.4944 176.768 26.4944H176.04V29.2048ZM176.04 30.9339V34.7834H173.64V24.7515H176.938C178.476 24.7515 179.614 25.0008 180.352 25.4994C181.091 25.9935 181.46 26.746 181.46 27.757C181.46 28.3471 181.276 28.8731 180.91 29.3352C180.543 29.7926 180.025 30.1517 179.354 30.4125C181.057 32.6677 182.167 34.1247 182.683 34.7834H180.019L177.317 30.9339H176.04Z" fill="black"/>
<path d="M191.006 34.7834L190.185 32.3955H186.059L185.238 34.7834H182.652L186.647 24.7103H189.581L193.592 34.7834H191.006ZM189.612 30.6115C188.854 28.4477 188.425 27.224 188.327 26.9404C188.234 26.6568 188.167 26.4326 188.126 26.2679C187.955 26.8535 187.468 28.3013 186.662 30.6115H189.612Z" fill="black"/>
<path d="M195.009 34.7834V24.7515H197.409V33.0268H202V34.7834H195.009Z" fill="black"/>
<path d="M48.1486 43.6768V46.8942H47.1335V39.1576H49.5278C50.5986 39.1576 51.3888 39.3393 51.8983 39.7027C52.4118 40.066 52.6685 40.6129 52.6685 41.3431C52.6685 42.3662 52.0834 43.0576 50.9131 43.4175L53.2835 46.8942H52.0834L49.9697 43.6768H48.1486ZM48.1486 42.9042H49.5398C50.2563 42.9042 50.7817 42.7789 51.1161 42.5285C51.4505 42.2745 51.6176 41.8952 51.6176 41.3907C51.6176 40.8792 51.4465 40.5105 51.1042 40.2848C50.7658 40.059 50.2205 39.9461 49.4681 39.9461H48.1486V42.9042Z" fill="black"/>
<path d="M55.5465 46.8941H54.5553V41.0944H55.5465V46.8941ZM54.4717 39.5228C54.4717 39.3217 54.5274 39.1753 54.6389 39.0835C54.7503 38.9883 54.8897 38.9407 55.0568 38.9407C55.2161 38.9407 55.3534 38.9883 55.4688 39.0835C55.5843 39.1788 55.642 39.3252 55.642 39.5228C55.642 39.7203 55.5843 39.8685 55.4688 39.9673C55.3534 40.0625 55.2161 40.1101 55.0568 40.1101C54.8897 40.1101 54.7503 40.0625 54.6389 39.9673C54.5274 39.8685 54.4717 39.7203 54.4717 39.5228Z" fill="black"/>
<path d="M63.2846 43.989C63.2846 44.9344 63.0159 45.6735 62.4786 46.2062C61.9412 46.7354 61.1988 47 60.2515 47C59.6663 47 59.1469 46.8783 58.6931 46.6349C58.2393 46.3914 57.889 46.0422 57.6422 45.5871C57.3954 45.132 57.272 44.5993 57.272 43.989C57.272 43.0435 57.5387 42.308 58.0721 41.7823C58.6055 41.2531 59.3459 40.9886 60.2933 40.9886C61.2088 40.9886 61.9352 41.2584 62.4726 41.7982C63.014 42.338 63.2846 43.0682 63.2846 43.989ZM58.299 43.989C58.299 44.7298 58.4662 45.2943 58.8006 45.6823C59.1349 46.0704 59.6265 46.2644 60.2753 46.2644C60.9242 46.2644 61.4158 46.0722 61.7502 45.6876C62.0885 45.2996 62.2577 44.7334 62.2577 43.989C62.2577 43.2517 62.0885 42.6925 61.7502 42.3115C61.4158 41.927 60.9202 41.7347 60.2634 41.7347C59.6146 41.7347 59.125 41.9234 58.7946 42.3009C58.4642 42.6784 58.299 43.2411 58.299 43.989Z" fill="black"/>
<path d="M72.2051 42.8407H75.1726V46.6031C74.7108 46.7336 74.2411 46.8324 73.7635 46.8995C73.2858 46.9665 72.7325 47 72.1036 47C70.782 47 69.7531 46.6525 69.0167 45.9575C68.2803 45.259 67.912 44.2818 67.912 43.0259C67.912 42.2216 68.0932 41.5177 68.4554 40.9145C68.8216 40.3077 69.347 39.8456 70.0317 39.5281C70.7164 39.207 71.5185 39.0465 72.438 39.0465C73.3694 39.0465 74.2372 39.1982 75.0412 39.5016L74.6471 40.2954C73.859 39.999 73.1007 39.8508 72.3723 39.8508C71.3095 39.8508 70.4795 40.1313 69.8824 40.6922C69.2853 41.2532 68.9868 42.0311 68.9868 43.0259C68.9868 44.0701 69.2734 44.8621 69.8466 45.4019C70.4238 45.9416 71.2697 46.2115 72.3842 46.2115C72.9893 46.2115 73.5804 46.1498 74.1575 46.0263V43.645H72.2051V42.8407Z" fill="black"/>
<path d="M80.1104 40.9886C80.401 40.9886 80.6617 41.0097 80.8926 41.0521L80.7553 41.867C80.4846 41.8141 80.2458 41.7876 80.0388 41.7876C79.5094 41.7876 79.0556 41.9781 78.6774 42.3591C78.3033 42.7401 78.1162 43.2146 78.1162 43.7826V46.8941H77.125V41.0944H77.943L78.0565 42.1686H78.1043C78.3471 41.7911 78.6396 41.5001 78.982 41.2955C79.3243 41.0909 79.7004 40.9886 80.1104 40.9886Z" fill="black"/>
<path d="M86.1648 46.8942L85.9678 46.0687H85.92C85.5936 46.432 85.2672 46.679 84.9408 46.8095C84.6183 46.9365 84.2143 47 83.7287 47C83.0799 47 82.5703 46.8518 82.2002 46.5555C81.8339 46.2592 81.6508 45.8376 81.6508 45.2908C81.6508 44.1195 82.7077 43.5057 84.8213 43.4493L85.9319 43.4175V43.0576C85.9319 42.6026 85.8205 42.2674 85.5975 42.0522C85.3786 41.8335 85.0263 41.7241 84.5407 41.7241C83.9954 41.7241 83.3784 41.8723 82.6898 42.1686L82.3852 41.4966C82.7077 41.3414 83.0599 41.2197 83.4421 41.1315C83.8282 41.0433 84.2143 40.9992 84.6004 40.9992C85.3806 40.9992 85.9578 41.1526 86.332 41.4596C86.7101 41.7665 86.8992 42.2586 86.8992 42.9359V46.8942H86.1648ZM83.9258 46.275C84.5427 46.275 85.0264 46.1251 85.3767 45.8253C85.7309 45.5254 85.9081 45.1056 85.9081 44.5658V44.0419L84.9169 44.079C84.1288 44.1036 83.5595 44.213 83.2092 44.407C82.8629 44.5975 82.6898 44.8956 82.6898 45.3013C82.6898 45.6188 82.7973 45.8605 83.0122 46.0263C83.2311 46.1921 83.5357 46.275 83.9258 46.275Z" fill="black"/>
<path d="M93.4254 46.8941V43.1423C93.4254 42.6696 93.304 42.3168 93.0611 42.084C92.8183 41.8511 92.4382 41.7347 91.9207 41.7347C91.2361 41.7347 90.7345 41.8987 90.4161 42.2268C90.0976 42.5549 89.9384 43.0964 89.9384 43.8514V46.8941H88.9473V41.0944H89.7533L89.9145 41.8882H89.9623C90.1653 41.6024 90.4499 41.3819 90.8162 41.2267C91.1824 41.068 91.5904 40.9886 92.0402 40.9886C92.8283 40.9886 93.4214 41.1579 93.8195 41.4966C94.2175 41.8317 94.4166 42.3697 94.4166 43.1106V46.8941H93.4254Z" fill="black"/>
<path d="M100.901 46.1163H100.847C100.389 46.7054 99.7047 47 98.7931 47C97.9373 47 97.2706 46.7407 96.7929 46.2221C96.3192 45.7035 96.0824 44.9662 96.0824 44.0102C96.0824 43.0541 96.3212 42.3115 96.7989 41.7823C97.2766 41.2532 97.9413 40.9886 98.7931 40.9886C99.6808 40.9886 100.361 41.2743 100.835 41.8458H100.913L100.871 41.4278L100.847 41.0203V38.6602H101.838V46.8942H101.032L100.901 46.1163ZM98.9185 46.2644C99.5952 46.2644 100.085 46.1022 100.387 45.7776C100.694 45.4495 100.847 44.9221 100.847 44.1954V44.0102C100.847 43.1882 100.692 42.6026 100.381 42.2533C100.075 41.9005 99.5833 41.7241 98.9066 41.7241C98.3254 41.7241 97.8796 41.9252 97.5691 42.3274C97.2626 42.726 97.1094 43.2905 97.1094 44.0208C97.1094 44.7616 97.2626 45.3207 97.5691 45.6982C97.8756 46.0757 98.3254 46.2644 98.9185 46.2644Z" fill="black"/>
<path d="M106.71 47C105.743 47 104.979 46.7389 104.418 46.2168C103.86 45.6947 103.582 44.9697 103.582 44.0419C103.582 43.107 103.841 42.3644 104.358 41.8141C104.879 41.2637 105.578 40.9886 106.454 40.9886C107.274 40.9886 107.923 41.2285 108.4 41.7082C108.878 42.1845 109.117 42.8142 109.117 43.5974V44.153H104.609C104.629 44.8339 104.822 45.3507 105.188 45.7035C105.558 46.0563 106.078 46.2327 106.746 46.2327C107.451 46.2327 108.147 46.1022 108.836 45.8411V46.6243C108.486 46.7583 108.153 46.8536 107.839 46.91C107.529 46.97 107.152 47 106.71 47ZM106.442 41.7241C105.916 41.7241 105.496 41.8758 105.182 42.1792C104.871 42.4826 104.688 42.9024 104.633 43.4387H108.054C108.054 42.8848 107.915 42.4614 107.636 42.1686C107.357 41.8723 106.959 41.7241 106.442 41.7241Z" fill="black"/>
<path d="M118.455 46.1163H118.401C117.944 46.7054 117.259 47 116.347 47C115.492 47 114.825 46.7407 114.347 46.2221C113.873 45.7035 113.637 44.9662 113.637 44.0102C113.637 43.0541 113.875 42.3115 114.353 41.7823C114.831 41.2532 115.496 40.9886 116.347 40.9886C117.235 40.9886 117.916 41.2743 118.389 41.8458H118.467L118.425 41.4278L118.401 41.0203V38.6602H119.393V46.8942H118.586L118.455 46.1163ZM116.473 46.2644C117.149 46.2644 117.639 46.1022 117.942 45.7776C118.248 45.4495 118.401 44.9221 118.401 44.1954V44.0102C118.401 43.1882 118.246 42.6026 117.936 42.2533C117.629 41.9005 117.138 41.7241 116.461 41.7241C115.88 41.7241 115.434 41.9252 115.123 42.3274C114.817 42.726 114.664 43.2905 114.664 44.0208C114.664 44.7616 114.817 45.3207 115.123 45.6982C115.43 46.0757 115.88 46.2644 116.473 46.2644Z" fill="black"/>
<path d="M127.149 43.989C127.149 44.9344 126.88 45.6735 126.343 46.2062C125.805 46.7354 125.063 47 124.115 47C123.53 47 123.011 46.8783 122.557 46.6349C122.103 46.3914 121.753 46.0422 121.506 45.5871C121.259 45.132 121.136 44.5993 121.136 43.989C121.136 43.0435 121.403 42.308 121.936 41.7823C122.469 41.2531 123.21 40.9886 124.157 40.9886C125.073 40.9886 125.799 41.2584 126.337 41.7982C126.878 42.338 127.149 43.0682 127.149 43.989ZM122.163 43.989C122.163 44.7298 122.33 45.2943 122.664 45.6823C122.999 46.0704 123.49 46.2644 124.139 46.2644C124.788 46.2644 125.28 46.0722 125.614 45.6876C125.952 45.2996 126.122 44.7334 126.122 43.989C126.122 43.2517 125.952 42.6925 125.614 42.3115C125.28 41.927 124.784 41.7347 124.127 41.7347C123.479 41.7347 122.989 41.9234 122.659 42.3009C122.328 42.6784 122.163 43.2411 122.163 43.989Z" fill="black"/>
<path d="M139.048 46.8942H137.89L133.119 40.4012H133.072C133.135 41.1632 133.167 41.8617 133.167 42.4967V46.8942H132.23V39.1576H133.376L138.135 45.6241H138.183C138.175 45.5289 138.157 45.2237 138.129 44.7087C138.101 44.1901 138.091 43.8197 138.099 43.5974V39.1576H139.048L139.048 46.8942Z" fill="black"/>
<path d="M146.948 43.989C146.948 44.9344 146.679 45.6735 146.142 46.2062C145.604 46.7354 144.862 47 143.915 47C143.33 47 142.81 46.8783 142.356 46.6349C141.903 46.3914 141.552 46.0422 141.305 45.5871C141.059 45.132 140.935 44.5993 140.935 43.989C140.935 43.0435 141.202 42.308 141.735 41.7823C142.269 41.2531 143.009 40.9886 143.957 40.9886C144.872 40.9886 145.598 41.2584 146.136 41.7982C146.677 42.338 146.948 43.0682 146.948 43.989ZM141.962 43.989C141.962 44.7298 142.129 45.2943 142.464 45.6823C142.798 46.0704 143.29 46.2644 143.939 46.2644C144.587 46.2644 145.079 46.0722 145.413 45.6876C145.752 45.2996 145.921 44.7334 145.921 43.989C145.921 43.2517 145.752 42.6925 145.413 42.3115C145.079 41.927 144.583 41.7347 143.927 41.7347C143.278 41.7347 142.788 41.9234 142.458 42.3009C142.127 42.6784 141.962 43.2411 141.962 43.989Z" fill="black"/>
<path d="M151.689 40.9886C151.979 40.9886 152.24 41.0097 152.471 41.0521L152.334 41.867C152.063 41.8141 151.824 41.7876 151.617 41.7876C151.088 41.7876 150.634 41.9781 150.256 42.3591C149.882 42.7401 149.694 43.2146 149.694 43.7826V46.8941H148.703V41.0944H149.521L149.635 42.1686H149.683C149.925 41.7911 150.218 41.5001 150.56 41.2955C150.903 41.0909 151.279 40.9886 151.689 40.9886Z" fill="black"/>
<path d="M155.832 46.275C156.008 46.275 156.177 46.2644 156.34 46.2433C156.503 46.2186 156.633 46.1939 156.728 46.1691V46.8412C156.621 46.887 156.461 46.9241 156.25 46.9523C156.043 46.9841 155.856 47 155.689 47C154.423 47 153.79 46.409 153.79 45.2272V41.777H152.853V41.3537L153.79 40.9885L154.208 39.7503H154.782V41.0944H156.68V41.777H154.782V45.1902C154.782 45.5394 154.875 45.8075 155.062 45.9945C155.249 46.1815 155.506 46.275 155.832 46.275Z" fill="black"/>
<path d="M160.806 47C159.839 47 159.075 46.7389 158.513 46.2168C157.956 45.6947 157.677 44.9697 157.677 44.0419C157.677 43.107 157.936 42.3644 158.454 41.8141C158.975 41.2637 159.674 40.9886 160.549 40.9886C161.369 40.9886 162.018 41.2285 162.496 41.7082C162.974 42.1845 163.212 42.8142 163.212 43.5974V44.153H158.704C158.724 44.8339 158.917 45.3507 159.284 45.7035C159.654 46.0563 160.173 46.2327 160.842 46.2327C161.547 46.2327 162.243 46.1022 162.932 45.8411V46.6243C162.581 46.7583 162.249 46.8536 161.935 46.91C161.624 46.97 161.248 47 160.806 47ZM160.537 41.7241C160.012 41.7241 159.592 41.8758 159.278 42.1792C158.967 42.4826 158.784 42.9024 158.728 43.4387H162.15C162.15 42.8848 162.01 42.4614 161.732 42.1686C161.453 41.8723 161.055 41.7241 160.537 41.7241Z" fill="black"/>
<path d="M25.5294 9.61771C25.5294 10.2031 25.0584 10.6213 24.399 10.6213H15.2611C14.6017 10.6213 14.1307 10.2031 14.1307 9.61771V1.50537C14.1307 0.919946 14.6017 0.501801 15.2611 0.501801H24.399C25.0584 0.501801 25.5294 0.919946 25.5294 1.50537V9.61771Z" fill="#359830"/>
<path d="M39.1891 9.61771C39.1891 10.2031 38.7181 10.6213 38.0586 10.6213H28.9208C28.2614 10.6213 27.7903 10.2031 27.7903 9.61771V1.50537C27.7903 0.919946 28.2614 0.501801 28.9208 0.501801H38.0586C38.7181 0.501801 39.1891 0.919946 39.1891 1.50537V9.61771Z" fill="#359830"/>
<path d="M39.1891 33.7874C39.1891 34.3728 38.7181 34.791 38.0586 34.791H28.9208C28.2614 34.791 27.7903 34.3728 27.7903 33.7874V25.6751C27.7903 25.0897 28.2614 24.6715 28.9208 24.6715H38.0586C38.7181 24.6715 39.1891 25.0897 39.1891 25.6751V33.7874Z" fill="#359830"/>
<path d="M11.8698 21.6607C11.8698 22.2462 11.3987 22.6643 10.7393 22.6643H1.60147C0.942043 22.6643 0.471008 22.2462 0.471008 21.6607V13.5484C0.471008 12.963 0.942043 12.5448 1.60147 12.5448H10.7393C11.3987 12.5448 11.8698 12.963 11.8698 13.5484V21.6607Z" fill="#359830"/>
<path d="M25.5294 21.6607C25.5294 22.2462 25.0584 22.6643 24.399 22.6643H15.2611C14.6017 22.6643 14.1307 22.2462 14.1307 21.6607V13.5484C14.1307 12.963 14.6017 12.5448 15.2611 12.5448H24.399C25.0584 12.5448 25.5294 12.963 25.5294 13.5484V21.6607Z" fill="#359830"/>
<path d="M11.8698 33.7874C11.8698 34.3728 11.3987 34.791 10.7393 34.791H1.60147C0.942043 34.791 0.471008 34.3728 0.471008 33.7874V25.6751C0.471008 25.0897 0.942043 24.6715 1.60147 24.6715H10.7393C11.3987 24.6715 11.8698 25.0897 11.8698 25.6751V33.7874Z" fill="#359830"/>
<path d="M25.5294 33.7874C25.5294 34.3728 25.0584 34.791 24.399 34.791H15.2611C14.6017 34.791 14.1307 34.3728 14.1307 33.7874V25.6751C14.1307 25.0897 14.6017 24.6715 15.2611 24.6715H24.399C25.0584 24.6715 25.5294 25.0897 25.5294 25.6751V33.7874Z" fill="#359830"/>
<path d="M11.8698 45.9141C11.8698 46.4995 11.3987 46.9177 10.7393 46.9177H1.60147C0.942043 46.9177 0.471008 46.4995 0.471008 45.9141V37.8018C0.471008 37.2163 0.942043 36.7982 1.60147 36.7982H10.7393C11.3987 36.7982 11.8698 37.2163 11.8698 37.8018V45.9141Z" fill="#359830"/>
<path d="M25.5294 45.9141C25.5294 46.4995 25.0584 46.9177 24.399 46.9177H15.2611C14.6017 46.9177 14.1307 46.4995 14.1307 45.9141V37.8018C14.1307 37.2163 14.6017 36.7982 15.2611 36.7982H24.399C25.0584 36.7982 25.5294 37.2163 25.5294 37.8018V45.9141Z" fill="#359830"/>
<path d="M12.435 5.51973C12.435 8.53049 9.60887 11.0394 6.21751 11.0394C2.82614 11.0394 0 8.53049 0 5.51973C0 2.50897 2.82614 0 6.21751 0C9.70308 0 12.435 2.50897 12.435 5.51973Z" fill="#C90C0F"/>
</g>
<defs>
<clipPath id="clip0_130605_66">
<rect width="202" height="47" fill="black"/>
</clipPath>
</defs>
</svg>
